# xmcd CD database file
#
# Track frame offsets:
#	150
#	35884
#	67812
#	92580
#	108337
#	134137
#	164211
#	198861
#	202858
#	208431
#	210764
#	217292
#	221443
#	234498
#
# Disc length: 3516 seconds
#
# Revision: 0
# Processed by: cddbd v1.5.1PL2 Copyright (c) Steve Scherf et al.
# Submitted via: CDex 1.51
#
DISCID=dc0dba0e
DTITLE=hörsturz - a sketch of brel
DYEAR=2000
DGENRE=Jazz
TTITLE0=il neige sur liège
TTITLE1=la ville s'endormait
TTITLE2=ne me quitte pas
TTITLE3=la quête
TTITLE4=amsterdam
TTITLE5=la chanson des vieux amants
TTITLE6=voir un ami pleurer
TTITLE7=les flamandes 1
TTITLE8=les flamandes 2
TTITLE9=les flamandes 3
TTITLE10=la valse à mille temps
TTITLE11=les coeurs tendres
TTITLE12=jaures
TTITLE13=ne me quitte pas (alt.take)
EXTD=YEAR: 2000
EXTT0=
EXTT1=
EXTT2=
EXTT3=
EXTT4=
EXTT5=
EXTT6=
EXTT7=
EXTT8=
EXTT9=
EXTT10=
EXTT11=
EXTT12=
EXTT13=
PLAYORDER=
